<svg xmlns="http://www.w3.org/2000/svg" viewBox="0 0 960 720" role="img" aria-labelledby="title desc">
  <title id="title">Open environmental chamber front schematic</title>
  <desc id="desc">A clean open-front environmental chamber illustration with a large interior shelf space reserved for an overlaid reservation selection grid.</desc>
  <!--
    ChamberReserve overlay target for the 4 x 3 selection frame:
    x=280 y=126 width=540 height=405
    This SVG intentionally does not draw reservation grid lines.
  -->
  <defs>
    <linearGradient id="outerBody" x1="84" x2="892" y1="50" y2="628" gradientUnits="userSpaceOnUse">
      <stop offset="0" stop-color="#fbfcfb"/>
      <stop offset="0.33" stop-color="#d7dfdc"/>
      <stop offset="0.72" stop-color="#f5f6f4"/>
      <stop offset="1" stop-color="#b3bdb9"/>
    </linearGradient>
    <linearGradient id="controlPanel" x1="102" x2="204" y1="70" y2="608" gradientUnits="userSpaceOnUse">
      <stop offset="0" stop-color="#343b42"/>
      <stop offset="1" stop-color="#20262c"/>
    </linearGradient>
    <linearGradient id="screen" x1="134" x2="178" y1="205" y2="252" gradientUnits="userSpaceOnUse">
      <stop offset="0" stop-color="#7cd7ff"/>
      <stop offset="0.45" stop-color="#2d78ab"/>
      <stop offset="1" stop-color="#11283a"/>
    </linearGradient>
    <linearGradient id="bezel" x1="230" x2="880" y1="72" y2="578" gradientUnits="userSpaceOnUse">
      <stop offset="0" stop-color="#f2f5f3"/>
      <stop offset="0.45" stop-color="#c6d0cc"/>
      <stop offset="1" stop-color="#eef1ef"/>
    </linearGradient>
    <linearGradient id="cavityBack" x1="280" x2="848" y1="116" y2="542" gradientUnits="userSpaceOnUse">
      <stop offset="0" stop-color="#f9fdfb"/>
      <stop offset="0.56" stop-color="#eef6f4"/>
      <stop offset="1" stop-color="#d9e4e0"/>
    </linearGradient>
    <linearGradient id="leftWall" x1="236" x2="300" y1="104" y2="550" gradientUnits="userSpaceOnUse">
      <stop offset="0" stop-color="#eef4f1"/>
      <stop offset="1" stop-color="#c7d3cf"/>
    </linearGradient>
    <linearGradient id="shelfTop" x1="280" x2="848" y1="0" y2="0" gradientUnits="userSpaceOnUse">
      <stop offset="0" stop-color="#c7d2ce"/>
      <stop offset="0.28" stop-color="#f8fbfa"/>
      <stop offset="0.72" stop-color="#eef4f2"/>
      <stop offset="1" stop-color="#bdc9c5"/>
    </linearGradient>
    <linearGradient id="base" x1="96" x2="884" y1="526" y2="628" gradientUnits="userSpaceOnUse">
      <stop offset="0" stop-color="#d8dfdc"/>
      <stop offset="0.48" stop-color="#cbd4d0"/>
      <stop offset="1" stop-color="#e4e8e5"/>
    </linearGradient>
    <filter id="dropShadow" x="-20%" y="-20%" width="140%" height="160%">
      <feDropShadow dx="0" dy="18" stdDeviation="18" flood-color="#1f2933" flood-opacity="0.22"/>
    </filter>
    <pattern id="brushedMetal" width="8" height="8" patternUnits="userSpaceOnUse">
      <path d="M1 0v8M5 0v8" stroke="#ffffff" stroke-opacity="0.28" stroke-width="1"/>
      <path d="M3 0v8M7 0v8" stroke="#7f8a86" stroke-opacity="0.08" stroke-width="1"/>
    </pattern>
    <pattern id="shelfPerforation" width="18" height="8" patternUnits="userSpaceOnUse">
      <circle cx="5" cy="4" r="1.2" fill="#8d9b96" opacity="0.28"/>
      <circle cx="14" cy="4" r="1.2" fill="#8d9b96" opacity="0.2"/>
    </pattern>
  </defs>

  <rect width="960" height="720" fill="#eef1ef"/>
  <ellipse cx="493" cy="650" rx="365" ry="34" fill="#1f2933" opacity="0.13"/>

  <g filter="url(#dropShadow)">
    <path d="M96 72c0-14 11-25 25-25h720c14 0 25 11 25 25v518c0 14-11 25-25 25H121c-14 0-25-11-25-25V72Z" fill="url(#outerBody)"/>
    <path d="M96 72c0-14 11-25 25-25h720c14 0 25 11 25 25v518c0 14-11 25-25 25H121c-14 0-25-11-25-25V72Z" fill="url(#brushedMetal)" opacity="0.76"/>
    <path d="M96 72c0-14 11-25 25-25h720c14 0 25 11 25 25v518c0 14-11 25-25 25H121c-14 0-25-11-25-25V72Z" fill="none" stroke="#9aa5a2" stroke-width="3"/>

    <path d="M96 72c0-14 11-25 25-25h91v568H96V72Z" fill="url(#controlPanel)"/>
    <path d="M206 54h10v552h-10z" fill="#7f86c9"/>
    <path d="M212 54h4v552h-4z" fill="#c9cced" opacity="0.6"/>

    <rect x="132" y="202" width="56" height="64" rx="7" fill="#111923" stroke="#61707a" stroke-width="2"/>
    <rect x="139" y="212" width="42" height="34" rx="3" fill="url(#screen)"/>
    <path d="M145 223h28M145 234h20M145 242h31" stroke="#d6f4ff" stroke-width="2" stroke-linecap="round"/>
    <circle cx="136" cy="291" r="5" fill="#8fd35c"/>
    <circle cx="160" cy="291" r="5" fill="#ffd45d"/>
    <circle cx="184" cy="291" r="5" fill="#f16868"/>
    <rect x="132" y="314" width="56" height="15" rx="2" fill="#101820"/>
    <rect x="143" y="340" width="34" height="9" rx="2" fill="#687580"/>

    <path d="M226 82c0-13 10-23 23-23h587v501H249c-13 0-23-10-23-23V82Z" fill="url(#bezel)"/>
    <path d="M226 82c0-13 10-23 23-23h587v501H249c-13 0-23-10-23-23V82Z" fill="url(#brushedMetal)" opacity="0.55"/>
    <path d="M226 82c0-13 10-23 23-23h587v501H249c-13 0-23-10-23-23V82Z" fill="none" stroke="#a1aca8" stroke-width="2"/>

    <path d="M250 104h598v438H250Z" fill="#7f8d88" opacity="0.18"/>
    <path d="M250 104l30 12v426l-30-25Z" fill="url(#leftWall)"/>
    <path d="M848 104l-28 12v426l28-25Z" fill="#cbd7d3"/>
    <path d="M280 116h540v426H280Z" fill="url(#cavityBack)"/>
    <path d="M292 126h516v405H292Z" fill="#ffffff" opacity="0.24"/>
    <path d="M299 132c70 27 142 40 216 40 126 0 199-38 294-46v-10H280v24c7-4 13-7 19-8Z" fill="#ffffff" opacity="0.48"/>

    <path d="M250 104h598" stroke="#dfe7e4" stroke-width="6" stroke-linecap="round"/>
    <path d="M250 542h598" stroke="#a6b3af" stroke-width="6" stroke-linecap="round"/>
    <path d="M250 104v438M848 104v438" stroke="#c4cfcb" stroke-width="6" stroke-linecap="round"/>
    <path d="M280 116h540M280 542h540M280 116v426M820 116v426" stroke="#f8fbfa" stroke-width="2" opacity="0.72"/>

    <g opacity="0.56">
      <path d="M296 253h500c6 0 11 5 11 11v4H288v-4c0-6 5-11 11-11Z" fill="url(#shelfTop)"/>
      <rect x="288" y="268" width="519" height="5" fill="#a9b6b2"/>
      <rect x="304" y="258" width="486" height="6" fill="url(#shelfPerforation)" opacity="0.68"/>
      <path d="M296 388h500c6 0 11 5 11 11v4H288v-4c0-6 5-11 11-11Z" fill="url(#shelfTop)"/>
      <rect x="288" y="403" width="519" height="5" fill="#a9b6b2"/>
      <rect x="304" y="393" width="486" height="6" fill="url(#shelfPerforation)" opacity="0.68"/>
    </g>
    <path d="M314 129v394M786 129v394" stroke="#dfe8e5" stroke-width="2" opacity="0.38"/>
    <path d="M286 528h528" stroke="#ffffff" stroke-width="2" opacity="0.52"/>

    <path d="M96 560h770v30c0 14-11 25-25 25H121c-14 0-25-11-25-25v-30Z" fill="url(#base)"/>
    <path d="M216 560v54M488 560v54M674 560v54" stroke="#a5b0ac" stroke-width="2"/>
    <rect x="739" y="571" width="28" height="28" rx="4" fill="#7b8783"/>
    <rect x="747" y="577" width="12" height="16" rx="3" fill="#d7dedb"/>
    <rect x="134" y="572" width="72" height="17" rx="3" fill="#e7ece9" stroke="#9aa5a2"/>
    <path d="M96 615h770v16H96z" fill="#2a3138"/>
    <circle cx="174" cy="638" r="17" fill="#1c2228"/>
    <circle cx="174" cy="638" r="7" fill="#6f7a76"/>
    <circle cx="792" cy="638" r="17" fill="#1c2228"/>
    <circle cx="792" cy="638" r="7" fill="#6f7a76"/>
  </g>
</svg>
